<svg width="68" height="15" fill="none" xmlns="http://www.w3.org/2000/svg"><path d="M4.656 14.6a.39.39 0 0 1-.288-.112.39.39 0 0 1-.112-.288v-1.104c-.821-.107-1.51-.315-2.064-.624-.544-.31-.955-.683-1.232-1.12a2.88 2.88 0 0 1-.448-1.408c0-.085.032-.16.096-.224a.352.352 0 0 1 .256-.112H2.88c.15 0 .261.027.336.08.075.053.15.123.224.208.085.16.203.315.352.464.16.15.363.272.608.368.256.085.57.128.944.128.619 0 1.083-.096 1.392-.288.32-.192.48-.453.48-.784a.73.73 0 0 0-.256-.576c-.17-.16-.448-.299-.832-.416a12.512 12.512 0 0 0-1.504-.384c-.81-.17-1.504-.39-2.08-.656-.565-.277-.997-.635-1.296-1.072C.949 6.232.8 5.677.8 5.016c0-.853.304-1.579.912-2.176.619-.597 1.467-.97 2.544-1.12V.6a.39.39 0 0 1 .112-.288A.39.39 0 0 1 4.656.2h1.328a.37.37 0 0 1 .272.112c.085.075.128.17.128.288v1.152c.736.128 1.355.357 1.856.688.501.33.88.704 1.136 1.12.267.416.405.816.416 1.2a.363.363 0 0 1-.096.24.326.326 0 0 1-.24.096H7.344a.673.673 0 0 1-.304-.064.59.59 0 0 1-.224-.208c-.064-.235-.235-.437-.512-.608-.277-.181-.635-.272-1.072-.272-.459 0-.821.085-1.088.256-.267.16-.4.41-.4.752 0 .213.07.4.208.56.15.16.395.299.736.416.341.117.805.24 1.392.368.97.181 1.755.41 2.352.688.597.267 1.035.619 1.312 1.056.277.427.416.965.416 1.616 0 .63-.16 1.184-.48 1.664-.31.48-.747.87-1.312 1.168-.565.299-1.227.496-1.984.592v1.12a.365.365 0 0 1-.128.288.37.37 0 0 1-.272.112H4.656Z" fill="#2959CE"/><path d="M19.025 13a.404.404 0 0 1-.272-.096.404.404 0 0 1-.096-.272v-8.96L16.001 5.72a.373.373 0 0 1-.272.08.34.34 0 0 1-.24-.144l-.416-.528a.426.426 0 0 1-.08-.288.403.403 0 0 1 .16-.24l3.488-2.688a.513.513 0 0 1 .208-.096c.064-.01.134-.016.208-.016h.816a.32.32 0 0 1 .256.112c.064.064.096.15.096.256v10.464a.404.404 0 0 1-.096.272.346.346 0 0 1-.256.096h-.848Zm7.5.16c-.736 0-1.36-.112-1.872-.336a3.35 3.35 0 0 1-1.232-.96 3.99 3.99 0 0 1-.704-1.392 7.55 7.55 0 0 1-.24-1.664l-.032-.912v-.96c.01-.33.021-.645.032-.944.01-.587.09-1.141.24-1.664.16-.533.395-.997.704-1.392.32-.405.736-.72 1.248-.944.512-.235 1.13-.352 1.856-.352.736 0 1.355.117 1.856.352.512.224.928.539 1.248.944.32.395.555.859.704 1.392a6.03 6.03 0 0 1 .256 1.664c.01.299.016.613.016.944.01.32.01.64 0 .96 0 .32-.005.624-.016.912a6.03 6.03 0 0 1-.256 1.664c-.15.523-.384.987-.704 1.392-.31.405-.72.725-1.232.96-.501.224-1.125.336-1.872.336Zm0-1.36c.832 0 1.446-.272 1.84-.816.405-.555.614-1.307.624-2.256.021-.31.032-.608.032-.896v-.88c0-.299-.01-.592-.032-.88-.01-.928-.219-1.67-.624-2.224-.394-.565-1.008-.848-1.84-.848-.821 0-1.434.283-1.84.848-.394.555-.602 1.296-.624 2.224 0 .288-.005.581-.016.88v.88c.01.288.016.587.016.896.021.95.235 1.701.64 2.256.405.544 1.014.816 1.824.816Zm9.5 1.2a.404.404 0 0 1-.272-.096.404.404 0 0 1-.096-.272v-8.96L33.001 5.72a.373.373 0 0 1-.272.08.34.34 0 0 1-.24-.144l-.416-.528a.426.426 0 0 1-.08-.288.403.403 0 0 1 .16-.24l3.488-2.688a.513.513 0 0 1 .208-.096c.064-.01.134-.016.208-.016h.816a.32.32 0 0 1 .256.112c.064.064.096.15.096.256v10.464a.404.404 0 0 1-.096.272.346.346 0 0 1-.256.096h-.848Zm7.196.16c-.672 0-1.258-.08-1.76-.24a4.06 4.06 0 0 1-1.264-.672 3.114 3.114 0 0 1-.784-.912 2.368 2.368 0 0 1-.272-1.024c0-.096.032-.17.096-.224a.362.362 0 0 1 .24-.08h.784c.096 0 .181.021.256.064.075.043.139.133.192.272.107.384.288.683.544.896.267.213.57.363.912.448.352.075.704.112 1.056.112.736 0 1.334-.176 1.792-.528.459-.352.688-.87.688-1.552 0-.693-.208-1.19-.624-1.488-.416-.299-.992-.448-1.728-.448h-1.52a.404.404 0 0 1-.272-.096c-.064-.064-.096-.155-.096-.272v-.432c0-.096.016-.176.048-.24.043-.075.085-.139.128-.192l3.104-3.392h-4.72a.404.404 0 0 1-.272-.096c-.064-.064-.096-.155-.096-.272v-.608c0-.117.032-.208.096-.272a.37.37 0 0 1 .272-.112h6.384c.117 0 .208.037.272.112a.339.339 0 0 1 .112.272v.576a.367.367 0 0 1-.064.208c-.032.053-.07.107-.112.16l-3.088 3.44.256.016c.704.021 1.318.15 1.84.384a2.66 2.66 0 0 1 1.232 1.056c.299.459.448 1.04.448 1.744 0 .715-.176 1.328-.528 1.84-.352.501-.837.885-1.456 1.152-.618.267-1.317.4-2.096.4Zm7.226-.16a.326.326 0 0 1-.24-.096.43.43 0 0 1-.08-.256c0-.032.01-.08.031-.144l3.984-9.312h-5.248a.404.404 0 0 1-.271-.096.404.404 0 0 1-.096-.272v-.64c0-.117.032-.208.096-.272a.37.37 0 0 1 .272-.112h6.56c.117 0 .208.037.272.112a.339.339 0 0 1 .112.272v.592c0 .139-.011.25-.032.336a2.259 2.259 0 0 1-.096.288l-3.953 9.2a1.058 1.058 0 0 1-.16.272c-.063.085-.16.128-.288.128h-.864Zm6.212 0a.404.404 0 0 1-.272-.096.404.404 0 0 1-.096-.272V11.48c0-.107.032-.192.096-.256a.37.37 0 0 1 .272-.112h1.152a.32.32 0 0 1 .256.112.32.32 0 0 1 .112.256v1.152a.37.37 0 0 1-.112.272.346.346 0 0 1-.256.096h-1.152Zm3.743 0a.404.404 0 0 1-.272-.096.404.404 0 0 1-.096-.272v-.512c0-.096.027-.203.08-.32.053-.117.16-.245.32-.384l3.392-3.392c.544-.459.97-.848 1.28-1.168.32-.33.544-.645.672-.944a2.18 2.18 0 0 0 .208-.928c0-.608-.17-1.088-.512-1.44-.341-.363-.848-.544-1.52-.544-.427 0-.795.09-1.104.272-.31.17-.555.41-.736.72-.17.299-.283.64-.336 1.024-.021.139-.08.235-.176.288a.458.458 0 0 1-.24.08h-.832a.362.362 0 0 1-.24-.08.307.307 0 0 1-.096-.224c.01-.405.096-.81.256-1.216.16-.416.395-.79.704-1.12.32-.33.71-.597 1.168-.8.47-.213 1.013-.32 1.632-.32.843 0 1.53.155 2.064.464.544.299.944.699 1.2 1.2a3.57 3.57 0 0 1 .384 1.648c0 .47-.08.901-.24 1.296a4.51 4.51 0 0 1-.704 1.136 9.229 9.229 0 0 1-1.12 1.12l-3.072 3.12h4.992c.117 0 .208.032.272.096a.339.339 0 0 1 .112.272v.656a.37.37 0 0 1-.112.272c-.064.064-.155.096-.272.096h-7.056Z" fill="#555"/></svg>